<?xml version="1.0" standalone="no"?>
<!DOCTYPE svg PUBLIC "-//W3C//DTD SVG 20010904//EN"
 "http://www.w3.org/TR/2001/REC-SVG-20010904/DTD/svg10.dtd">
<svg version="1.0" xmlns="http://www.w3.org/2000/svg"
 width="1192.000000pt" height="1192.000000pt" viewBox="0 0 1192.000000 1192.000000"
 preserveAspectRatio="xMidYMid meet">
<metadata>
Created by potrace 1.11, written by Peter Selinger 2001-2013
</metadata>
<g transform="translate(0.000000,1192.000000) scale(0.100000,-0.100000)"
fill="#000000" stroke="none">
<path d="M3525 9573 c-44 -13 -102 -31 -130 -40 -27 -8 -57 -17 -65 -18 -8 -2
-94 -27 -190 -55 -96 -28 -184 -54 -195 -57 -11 -3 -54 -15 -95 -28 -41 -13
-136 -42 -210 -65 -74 -23 -142 -44 -150 -47 -8 -4 -18 -7 -22 -7 -3 -1 -10
-4 -14 -8 -4 -5 -17 -8 -28 -8 -12 0 -30 -6 -41 -14 -11 -7 -27 -13 -35 -13
-13 0 -202 -69 -285 -104 -16 -7 -32 -13 -35 -14 -15 -5 -49 -19 -77 -31 -17
-8 -34 -14 -37 -14 -3 0 -58 -25 -121 -55 -64 -30 -118 -55 -120 -55 -13 0
-255 -146 -340 -205 -124 -86 -297 -257 -348 -345 -21 -36 -42 -72 -47 -80
-14 -23 -65 -140 -85 -195 -10 -27 -22 -54 -25 -60 -4 -5 -11 -23 -15 -40 -11
-39 -67 -216 -82 -255 -3 -8 -7 -22 -8 -30 -1 -8 -10 -40 -19 -71 -9 -31 -19
-66 -21 -78 -3 -11 -7 -29 -10 -38 -10 -39 -27 -109 -31 -132 -3 -14 -7 -28
-9 -31 -2 -4 -7 -22 -10 -41 -3 -19 -12 -59 -20 -89 -7 -30 -16 -68 -19 -85
-2 -16 -14 -74 -25 -128 -11 -54 -20 -101 -19 -105 1 -4 -1 -14 -5 -22 -5 -13
-15 -65 -22 -110 -2 -8 -5 -28 -8 -45 -3 -16 -11 -57 -16 -90 -6 -33 -12 -71
-15 -85 -3 -14 -7 -41 -10 -60 -3 -19 -8 -48 -11 -65 -9 -51 -14 -88 -20 -130
-3 -22 -7 -49 -10 -60 -2 -11 -7 -42 -10 -70 -4 -27 -8 -61 -11 -75 -8 -44
-17 -111 -29 -205 -3 -27 -8 -57 -10 -65 -2 -8 -7 -43 -10 -78 -4 -35 -8 -73
-10 -84 -3 -11 -7 -46 -11 -77 -3 -31 -8 -64 -10 -75 -2 -10 -6 -44 -9 -75 -3
-31 -8 -67 -11 -81 -2 -14 -6 -52 -9 -85 -3 -33 -8 -76 -11 -95 -6 -45 -15
-127 -19 -165 -1 -16 -3 -30 -4 -30 -1 0 -4 -25 -6 -55 -6 -67 -11 -121 -19
-180 -3 -25 -8 -72 -11 -105 -3 -33 -8 -73 -10 -90 -3 -16 -7 -59 -10 -95 -3
-36 -7 -76 -9 -90 -3 -14 -7 -59 -10 -100 -4 -41 -9 -100 -13 -130 -3 -30 -7
-76 -7 -102 -1 -27 -3 -48 -6 -48 -3 0 -5 -17 -6 -38 0 -20 -4 -71 -8 -112
-15 -151 -19 -186 -32 -330 -3 -30 -7 -77 -10 -105 -3 -27 -7 -77 -10 -110 -9
-119 -14 -171 -19 -215 -3 -25 -8 -76 -10 -115 -3 -38 -7 -86 -9 -105 -2 -19
-7 -71 -11 -115 -10 -108 -12 -130 -21 -205 -4 -36 -8 -78 -9 -95 -1 -16 -5
-56 -9 -87 l-6 -58 5961 0 5960 0 -6 51 c-4 28 -8 69 -10 92 -2 23 -6 65 -9
92 -3 28 -8 77 -11 110 -8 97 -14 157 -20 210 -3 28 -7 78 -10 113 -3 34 -8
90 -11 125 -3 34 -7 80 -9 102 -2 22 -6 67 -9 100 -4 33 -8 85 -11 115 -2 30
-7 82 -10 115 -12 120 -15 161 -20 225 -2 36 -7 85 -10 110 -3 25 -8 70 -10
100 -2 30 -7 74 -10 97 -3 24 -7 71 -9 107 -3 35 -7 83 -11 107 -3 24 -8 67
-10 94 -14 167 -17 195 -20 212 -2 10 -4 18 -5 18 0 0 -3 27 -5 60 -4 56 -11
122 -20 205 -2 19 -6 60 -9 90 -4 30 -8 73 -11 95 -3 22 -7 61 -10 87 -3 26
-7 62 -9 80 -3 18 -8 60 -11 93 -4 32 -9 68 -11 79 -2 11 -6 45 -9 75 -2 31
-7 67 -9 81 -3 14 -7 50 -10 80 -4 30 -8 64 -10 76 -2 11 -7 47 -10 80 -4 32
-9 66 -11 74 -3 9 -7 40 -10 70 -2 30 -7 66 -10 80 -3 14 -8 45 -11 70 -6 53
-8 71 -24 170 -12 78 -14 92 -24 150 -3 19 -8 53 -11 74 -3 21 -7 48 -10 60
-2 12 -7 37 -10 56 -2 19 -7 49 -11 65 -8 40 -12 62 -19 110 -9 63 -13 84 -18
92 -3 5 -7 31 -11 60 -3 28 -8 57 -11 65 -2 7 -7 24 -9 38 -3 14 -10 50 -16
80 -6 30 -13 71 -16 90 -3 19 -10 42 -14 50 -4 8 -8 18 -8 23 0 7 -6 42 -16
92 -2 11 -18 74 -36 140 -17 66 -33 129 -35 140 -2 11 -15 58 -30 105 -15 47
-28 90 -29 95 -13 52 -30 105 -41 130 -7 17 -23 59 -35 95 -30 86 -141 320
-152 320 -4 0 -8 5 -8 11 0 28 -170 210 -270 290 -95 75 -241 166 -410 252
-96 49 -176 89 -177 88 -2 0 -24 9 -50 20 -27 12 -77 32 -113 46 -35 13 -69
27 -75 31 -5 4 -14 7 -20 8 -5 1 -62 21 -125 44 -173 63 -486 164 -575 186 -5
2 -95 28 -200 59 -104 31 -212 63 -240 70 -27 8 -90 25 -140 40 -87 25 -119
34 -140 38 -5 2 -14 5 -20 8 -5 4 -22 9 -37 13 -30 7 -32 3 -43 -77 -4 -27 -8
-59 -11 -70 -2 -12 -7 -35 -10 -52 -3 -16 -11 -58 -19 -93 -8 -34 -17 -76 -20
-94 -3 -17 -8 -35 -11 -40 -3 -4 -7 -16 -9 -25 -19 -99 -129 -449 -155 -495
-6 -10 -10 -25 -10 -34 0 -9 -6 -28 -14 -42 -8 -15 -42 -92 -76 -172 -57 -132
-160 -342 -212 -430 -97 -168 -164 -276 -175 -283 -7 -4 -13 -13 -13 -18 0 -9
-75 -125 -90 -139 -3 -3 -23 -30 -45 -60 -21 -30 -45 -62 -52 -70 -7 -8 -36
-44 -65 -80 -29 -36 -57 -70 -63 -77 -5 -6 -28 -32 -50 -57 -97 -112 -249
-260 -366 -356 -107 -89 -120 -99 -209 -158 -47 -31 -87 -59 -90 -62 -3 -3
-12 -6 -20 -8 -8 -2 -23 -11 -32 -19 -10 -9 -18 -12 -18 -7 0 5 -4 4 -8 -1
-14 -21 -224 -108 -288 -120 -10 -2 -19 -4 -19 -5 0 -7 -114 -23 -165 -23
-149 0 -381 79 -555 188 -22 14 -48 28 -57 31 -10 4 -18 10 -18 14 0 4 -8 10
-17 14 -20 6 -47 23 -74 46 -10 8 -28 23 -41 32 -85 65 -142 110 -161 127 -12
11 -38 34 -57 51 -119 106 -311 309 -393 415 -4 6 -17 21 -28 35 -47 56 -169
221 -169 230 0 4 -3 10 -7 12 -10 4 -104 143 -123 181 -7 15 -17 27 -22 27 -4
0 -8 4 -8 10 0 5 -18 39 -40 75 -22 36 -40 69 -40 74 0 5 -3 11 -7 13 -5 2
-16 19 -27 38 -28 53 -120 234 -121 240 -1 3 -18 41 -39 85 -75 159 -217 542
-240 645 -3 14 -24 93 -45 177 -22 83 -42 167 -44 185 -8 53 -39 223 -41 224
0 1 -37 -9 -81 -23z m-1199 -1061 c4 -78 16 -255 19 -292 7 -82 16 -167 19
-195 2 -16 7 -55 11 -85 3 -30 8 -66 10 -80 9 -59 18 -116 21 -135 1 -11 3
-20 4 -20 1 0 3 -9 4 -20 24 -169 132 -624 183 -775 3 -8 25 -73 49 -145 25
-71 47 -137 51 -145 3 -8 7 -18 8 -22 2 -5 4 -10 5 -13 1 -3 3 -8 5 -12 3 -13
16 -46 31 -80 8 -17 14 -34 14 -37 0 -3 11 -29 24 -58 13 -29 30 -70 36 -90 6
-21 16 -38 21 -38 5 0 9 -7 9 -15 0 -8 30 -77 67 -153 36 -75 67 -139 68 -142
1 -6 27 -55 73 -139 19 -35 40 -75 47 -87 7 -13 14 -22 16 -19 16 15 237 24
259 10 6 -4 23 -9 38 -11 91 -17 221 -94 300 -178 77 -84 145 -220 155 -311 2
-17 6 -35 8 -40 5 -10 2 -124 -4 -160 -26 -152 -74 -242 -185 -354 -236 -237
-626 -237 -866 2 -79 78 -123 147 -156 245 -51 153 -39 326 31 466 17 34 35
65 39 70 5 5 -15 53 -46 110 -57 106 -192 376 -242 486 -52 114 -169 411 -206
525 -20 61 -40 117 -43 125 -3 8 -7 20 -8 25 -2 6 -12 38 -24 72 -12 34 -21
71 -21 81 0 10 -3 22 -7 26 -5 4 -9 12 -9 17 -1 5 -2 10 -4 12 -1 1 -3 9 -5
17 -1 8 -14 58 -28 110 -14 52 -28 106 -31 120 -3 14 -10 43 -15 65 -5 22 -18
85 -30 140 -12 55 -23 109 -26 120 -4 17 -21 119 -30 180 -2 11 -6 36 -10 55
-3 20 -7 54 -10 75 -2 22 -4 40 -5 40 -2 0 -9 57 -15 120 -2 33 -7 70 -9 82
-7 35 -18 181 -19 271 l-2 84 35 13 c19 7 87 32 150 55 63 23 142 53 175 65
33 13 62 22 64 19 2 -2 6 -25 7 -52z m7391 3 c17 -8 33 -15 36 -15 3 0 18 -5
34 -12 15 -6 30 -12 33 -13 3 -1 19 -7 35 -14 17 -6 55 -21 85 -33 65 -26 71
-33 64 -73 -3 -16 -7 -41 -9 -55 -4 -30 -14 -95 -20 -130 -3 -14 -8 -43 -11
-65 -5 -32 -36 -162 -99 -405 -8 -32 -54 -167 -74 -218 -12 -29 -21 -54 -21
-57 0 -2 17 -14 38 -26 39 -24 147 -104 170 -126 7 -7 18 -16 25 -20 30 -19
150 -157 204 -235 79 -112 177 -340 193 -450 1 -4 6 -22 11 -40 28 -99 30
-336 3 -483 -11 -63 -13 -70 -14 -70 -1 0 -3 -8 -5 -17 -2 -10 -13 -48 -25
-85 -12 -38 -23 -75 -25 -83 -2 -8 -13 -53 -25 -100 -23 -90 -31 -123 -35
-155 -2 -11 -4 -21 -4 -22 -1 -2 -1 -5 -2 -8 0 -2 -5 -19 -10 -37 -5 -18 -12
-49 -15 -68 -3 -19 -7 -43 -10 -52 -3 -9 -7 -27 -9 -40 -3 -13 -14 -70 -26
-128 -12 -58 -22 -109 -23 -115 -1 -5 -5 -23 -9 -40 -4 -16 -9 -41 -11 -55 -3
-14 -8 -36 -11 -50 -4 -14 -8 -36 -9 -50 -2 -14 -6 -32 -9 -40 -3 -8 -10 -37
-16 -65 -18 -80 -48 -208 -55 -235 -30 -109 -85 -275 -128 -390 -5 -14 -9 -26
-9 -27 2 -10 -114 -221 -150 -273 -64 -94 -166 -192 -245 -236 -38 -21 -71
-39 -74 -39 -3 -1 -23 -7 -45 -15 -57 -19 -78 -22 -183 -25 -199 -5 -411 62
-453 143 -8 15 -18 30 -22 33 -16 11 -20 124 -7 164 20 61 92 129 150 142 33
8 119 4 138 -6 56 -30 177 -31 245 -2 51 22 167 130 167 156 0 8 4 15 9 15 7
0 28 40 78 156 9 21 17 44 19 49 1 6 9 31 17 57 37 107 121 439 143 563 3 17
14 68 25 115 11 47 22 100 25 119 2 18 13 72 24 120 10 47 21 97 24 111 3 14
13 59 22 100 9 41 18 84 19 95 1 11 5 27 8 35 3 8 20 69 37 135 17 66 40 145
50 176 35 102 49 203 44 319 -3 91 -5 109 -21 175 -4 17 -7 33 -7 37 -1 3 -4
10 -8 14 -5 4 -8 13 -8 20 0 8 -11 37 -23 66 -13 29 -24 56 -25 61 -1 4 -24
40 -50 80 -172 253 -441 398 -742 399 -109 0 -137 -3 -231 -27 -174 -45 -413
-212 -478 -333 -6 -11 -17 -27 -25 -34 -18 -18 -81 -143 -96 -190 -6 -21 -15
-38 -19 -38 -4 0 -8 -6 -8 -13 0 -18 -193 -401 -204 -405 -5 -2 -9 -10 -9 -18
0 -8 -10 -31 -23 -52 -12 -20 -34 -59 -47 -87 -14 -27 -27 -52 -30 -55 -6 -6
-6 -6 -86 -155 -32 -60 -73 -137 -91 -170 -46 -85 -66 -129 -65 -137 1 -5 -3
-8 -8 -8 -6 0 -10 -4 -10 -9 0 -5 -20 -51 -44 -102 -67 -146 -76 -165 -106
-249 -16 -43 -26 -81 -22 -84 3 -3 1 -6 -4 -6 -5 0 -10 -8 -10 -17 -1 -10 -4
-31 -9 -48 -16 -67 -14 -193 3 -245 20 -59 92 -147 127 -156 14 -3 25 -10 25
-14 0 -4 20 -15 45 -25 98 -37 148 -109 149 -211 0 -130 -107 -228 -238 -218
-27 2 -55 9 -62 15 -8 6 -14 9 -14 6 0 -9 -192 89 -217 110 -12 10 -31 25 -43
33 -31 21 -88 78 -119 120 -14 19 -28 37 -32 40 -8 8 -48 96 -64 143 -43 127
-40 310 10 512 21 88 21 87 28 105 3 8 19 53 36 100 43 123 55 154 62 160 3 3
12 23 19 45 15 45 184 380 280 555 35 63 73 133 84 155 12 22 24 42 27 45 3 3
11 20 18 38 8 17 18 32 24 32 6 0 8 3 5 6 -4 3 10 33 29 67 42 74 194 376 197
391 3 14 43 105 59 133 6 12 23 42 36 67 52 98 189 262 283 338 22 18 45 38
52 43 34 31 141 98 212 134 73 36 234 96 288 107 92 18 146 26 202 29 36 3 69
7 74 10 5 3 11 1 15 -5 4 -7 12 -7 24 0 10 5 21 7 24 4 3 -4 30 -7 59 -9 29
-1 80 -6 112 -10 43 -6 57 -5 52 4 -4 6 -2 11 5 11 7 0 9 3 6 7 -4 3 -3 11 2
17 8 11 72 202 87 261 10 41 11 45 14 48 2 3 7 23 15 61 3 16 8 33 10 37 3 4
7 24 11 45 3 22 12 66 19 99 14 61 24 121 29 186 2 20 6 41 8 45 3 5 6 30 7
55 1 25 4 55 6 65 2 10 4 24 4 31 1 11 62 -8 138 -42z"/>
</g>
</svg>
